PathFileType	4	(X/Y/Z)	C:\Users\Basilio\Documents\Thesis Gigler\squatting_fais\c3dfiles\041\SJ_pre2\markers_experimental.trc
DataRate	CameraRate	NumFrames	NumMarkers	Units	OrigDataRate	OrigDataStartFrame	OrigNumFrames
200.000000	200.000000	4	62	mm	200.000000	521	1390
Frame#	Time	FHD			LBHD			RBHD			C7			T10			CLAV			LSHO			LUUPA			LMUPA			LDUPA			LLEP			LMEP			LRAD			LUL			LRFIN			RSHO			RUPA1			RMUPA			RDUPA			RLEP			RMEP			RRAD			RUL			RUFIN			LASI			RASI			USACR			LSACR			RSACR			LTHI1			LTHI2			LTHI3			LTHI4			LLFC			LMFC			LTIB1			LTIB2			LTIB3			LTIB4			LLMAL			LMMAL			LHEE			LMT1			LMT2			LMT5			RTHI			RTHI2			RTHI3			RTHI4			RLFC			RMFC			RTIB1			RTIB2			RTIB3			RTIB4			RLMAL			RMMAL			RHEE			RMT1			RMT2			RMT5			*61			
		X1	Y1	Z1	X2	Y2	Z2	X3	Y3	Z3	X4	Y4	Z4	X5	Y5	Z5	X6	Y6	Z6	X7	Y7	Z7	X8	Y8	Z8	X9	Y9	Z9	X10	Y10	Z10	X11	Y11	Z11	X12	Y12	Z12	X13	Y13	Z13	X14	Y14	Z14	X15	Y15	Z15	X16	Y16	Z16	X17	Y17	Z17	X18	Y18	Z18	X19	Y19	Z19	X20	Y20	Z20	X21	Y21	Z21	X22	Y22	Z22	X23	Y23	Z23	X24	Y24	Z24	X25	Y25	Z25	X26	Y26	Z26	X27	Y27	Z27	X28	Y28	Z28	X29	Y29	Z29	X30	Y30	Z30	X31	Y31	Z31	X32	Y32	Z32	X33	Y33	Z33	X34	Y34	Z34	X35	Y35	Z35	X36	Y36	Z36	X37	Y37	Z37	X38	Y38	Z38	X39	Y39	Z39	X40	Y40	Z40	X41	Y41	Z41	X42	Y42	Z42	X43	Y43	Z43	X44	Y44	Z44	X45	Y45	Z45	X46	Y46	Z46	X47	Y47	Z47	X48	Y48	Z48	X49	Y49	Z49	X50	Y50	Z50	X51	Y51	Z51	X52	Y52	Z52	X53	Y53	Z53	X54	Y54	Z54	X55	Y55	Z55	X56	Y56	Z56	X57	Y57	Z57	X58	Y58	Z58	X59	Y59	Z59	X60	Y60	Z60	X61	Y61	Z61	X62	Y62	Z62	

522	2.605	-145.4441833496094	1678.4033203125	-902.0230712890627	-301.7197570800782	1579.8515625	-986.4556274414065	-290.9236755371094	1585.2705078125	-833.616882324219	-335.6726989746094	1467.296997070313	-922.8516845703127	-441.5354614257814	1173.817260742188	-923.3811645507815	-184.8179931640625	1379.8046875	-915.9145507812502	-232.4243316650391	1443.9423828125	-1092.307739257813	-307.7398071289063	1323.706298828125	-1235.745727539063	-302.8209533691407	1274.845947265625	-1231.538330078125	-342.2485046386719	1279.634765625	-1277.376342773438	-367.6652526855469	1238.183837890625	-1301.3984375	-441.4900817871095	1228.631713867188	-1246.815185546875	-391.8738403320314	1032.437255859375	-1128.647338867188	-381.4983825683594	985.7181396484377	-1186.623779296875	-346.4097290039063	1003.944396972656	-1091.516235351563	-235.9267272949219	1445.158569335938	-746.8605957031251	-325.1486511230469	1313.9658203125	-585.5644531250001	-295.6350402832032	1274.270751953125	-597.1036376953126	-328.3985290527344	1249.068725585938	-555.9562988281251	-340.7268371582032	1201.502319335938	-542.9207153320314	-422.3346557617189	1207.674560546875	-587.3242187500001	-410.5672607421876	1013.918884277344	-707.6274414062501	-370.6170959472657	993.7572021484377	-749.6654663085939	-391.709197998047	962.0484008789065	-653.6231079101564	-326.1690368652344	945.4421997070315	-1024.162719726563	-341.7108154296876	937.9213867187502	-816.9835205078127	-486.1994628906251	1066.977783203125	-926.2012329101565	-507.330780029297	1046.362182617188	-954.780944824219	-515.4484863281251	1045.900512695313	-900.157897949219	-424.3589172363282	774.064147949219	-1132.789306640625	-364.7962341308594	716.2843017578126	-1149.50048828125	-321.1965637207032	734.3646850585939	-1143.123046875	-370.8049316406251	654.1583862304689	-1146.258056640625	-293.8299560546876	498.6946716308595	-1166.950073242188	-270.0733947753907	466.3988647460939	-1057.08544921875	-287.5462646484376	302.0008850097657	-1139.04736328125	-350.5478820800782	276.7402343750001	-1200.138305664063	-312.8030700683594	263.9770202636719	-1178.647827148438	-326.2288818359376	184.1250305175782	-1153.6884765625	-405.1217346191407	101.4932632446289	-1199.835083007813	-363.0701293945313	104.7958297729492	-1118.495239257813	-462.6285705566407	52.35737609863283	-1161.665771484375	-245.2180328369141	60.85808563232423	-1144.84326171875	-241.2464294433594	59.99845504760744	-1189.733276367188	-282.4651794433594	34.70558166503907	-1243.893676757813	-406.1755371093751	715.9601440429689	-718.3841552734376	-352.5182495117188	680.1268920898439	-705.3117675781251	-321.4567871093751	692.7615356445314	-708.5348510742189	-347.3026733398438	595.1864624023439	-714.4865112304689	-305.4008483886719	487.5961914062501	-697.1123657226564	-281.2324829101563	462.4452514648439	-808.2083740234377	-293.0148010253907	319.6448974609376	-692.0990600585939	-389.1843566894532	260.8991394042969	-675.4436645507814	-343.2591247558594	250.1311187744141	-675.5364990234376	-330.0757141113282	197.1815032958985	-700.0606079101564	-407.6163940429689	94.38755798339845	-679.2761840820314	-374.7740783691407	103.5249099731446	-759.7735595703126	-464.9638977050782	49.46345901489259	-729.2906494140626	-247.1775817871094	52.98807525634767	-722.7042846679689	-247.8858795166016	58.69519042968751	-670.9885253906251	-295.1294860839844	38.30437088012696	-624.1318359375001	-4216.765136718751	853.1420898437502	-3944.669189453126	
523	2.61	-143.5327606201172	1675.244506835938	-902.0955200195315	-299.8567810058594	1576.675659179688	-986.5607910156252	-288.9185180664063	1581.992309570313	-833.4351806640627	-333.7744750976563	1464.805908203125	-922.9125976562502	-441.7087402343751	1172.017211914063	-923.4837646484377	-183.4175872802735	1376.217407226563	-915.9199218750002	-230.4133300781251	1440.665771484375	-1092.25244140625	-306.6225585937501	1320.896850585938	-1235.641235351563	-302.0202331542969	1272.011962890625	-1231.49951171875	-341.6295776367188	1276.845825195313	-1277.263793945313	-367.0563354492188	1235.685913085938	-1301.348510742188	-440.9737548828126	1226.572387695313	-1246.66796875	-392.7524414062501	1030.192993164063	-1128.35986328125	-382.8025207519532	983.3292236328127	-1186.162963867188	-346.8312988281251	1001.600402832031	-1091.491333007813	-234.2303161621094	1442.04443359375	-746.8508300781251	-324.2871398925782	1311.53759765625	-585.4259643554689	-294.9458007812501	1271.444946289063	-596.8059692382814	-327.9306030273438	1246.67919921875	-555.8809814453126	-340.6856689453126	1199.162109375	-542.5235595703126	-422.8578491210939	1205.927734375	-586.8883056640626	-411.7848205566407	1012.234741210938	-707.2299804687501	-372.6121520996094	991.4150390625002	-749.5428466796876	-393.3292846679689	960.1925048828127	-653.3399047851564	-327.0597839355469	942.8769531250002	-1023.874694824219	-343.2187805175782	935.9396972656252	-816.8953247070315	-487.0899658203126	1065.278564453125	-926.2933349609377	-508.2906188964845	1044.645874023438	-954.6453247070315	-516.5276489257814	1044.19921875	-900.0760498046877	-424.9170532226564	772.310729980469	-1132.75634765625	-364.7754821777344	714.9841308593751	-1149.71484375	-321.4417724609376	733.6149902343751	-1143.076782226563	-370.2002868652344	652.6087036132814	-1146.401733398438	-292.0115966796876	498.1606750488282	-1167.312866210938	-268.4843750000001	465.909149169922	-1057.653198242188	-286.4035949707032	301.6429138183594	-1139.424926757813	-349.5927124023438	276.5120239257813	-1200.297241210938	-311.7561645507813	263.7897033691407	-1179.00927734375	-325.5993347167969	183.9482879638672	-1154.258056640625	-404.986053466797	101.4524765014649	-1199.803344726563	-363.0111083984376	104.8486785888672	-1118.5068359375	-462.7893371582032	52.63018798828126	-1161.540649414063	-245.218978881836	60.8564796447754	-1144.843872070313	-241.2661285400391	59.95595550537111	-1189.786499023438	-282.5030212402344	34.68914413452149	-1243.928588867188	-406.3367004394532	714.9366455078126	-717.8962402343751	-352.0860595703126	678.9226684570314	-705.3199462890626	-321.4017028808594	691.7548217773439	-707.8107299804689	-346.6816406250001	594.1426391601564	-713.8971557617189	-304.0589599609376	487.1314392089845	-696.6865844726564	-280.0494689941407	462.1375732421876	-807.7783813476565	-292.2617797851563	318.9801940917969	-691.6256103515626	-388.549774169922	260.7622070312501	-675.1766967773439	-342.8366394042969	249.5662078857422	-675.9064941406251	-329.8451232910157	197.0528106689454	-699.8441772460939	-407.5988159179689	94.39756011962892	-679.2888793945314	-374.7277221679688	103.5138702392578	-759.8156738281251	-464.9967041015626	49.49147796630861	-729.2890014648439	-247.1579284667969	53.0045623779297	-722.7219238281251	-247.8332672119141	58.36649322509767	-671.0667724609376	-295.1013183593751	38.30934143066407	-624.1243286132814	-4216.890136718751	853.1451416015627	-3944.586669921876	
524	2.615	-141.6288146972657	1672.029296875	-902.1409301757815	-297.9582824707032	1573.430541992188	-986.5987548828127	-286.9922180175782	1578.674682617188	-833.811218261719	-332.0667419433594	1462.325317382813	-922.9664306640627	-441.8522949218751	1170.231567382813	-923.493835449219	-182.3531951904297	1372.710693359375	-915.7131347656252	-228.4246978759766	1437.271850585938	-1092.345458984375	-305.6026916503907	1317.988037109375	-1235.681884765625	-301.3166198730469	1268.977294921875	-1231.432373046875	-340.7770385742188	1274.02099609375	-1277.183837890625	-366.5211486816407	1233.005737304688	-1301.290405273438	-440.6585083007814	1224.533569335938	-1246.50830078125	-393.7947692871095	1027.931884765625	-1128.092407226563	-383.8754272460938	980.8647460937502	-1186.070068359375	-348.4813232421876	999.1959228515627	-1091.113403320313	-232.5685577392579	1438.654663085938	-746.7791137695314	-323.2575378417969	1309.055786132813	-585.2866210937501	-294.1398315429688	1268.793212890625	-596.6597900390626	-327.2247924804688	1244.16162109375	-555.7719726562501	-340.4331359863282	1196.793701171875	-542.4361572265626	-422.7521972656251	1204.120483398438	-586.6591186523439	-413.1279296875001	1010.338439941406	-707.0641479492189	-373.8900451660157	989.371520996094	-749.0358886718751	-394.6457824707032	958.1971435546877	-653.4622802734376	-328.7289733886719	940.432067871094	-1023.43310546875	-344.8296813964844	933.8582763671877	-816.4219970703127	-488.1513061523439	1063.579833984375	-926.2420654296877	-509.4110717773439	1042.9912109375	-954.6645507812502	-517.6197509765626	1042.458740234375	-900.1467285156252	-425.5138549804689	770.5999755859377	-1132.709228515625	-364.7012634277344	713.8806762695314	-1149.659912109375	-321.3358154296876	732.5073242187501	-1143.045654296875	-369.7762451171876	651.4687500000001	-1146.691650390625	-290.4479675292969	497.7275695800782	-1167.592407226563	-266.8261108398438	465.6554565429689	-1057.89697265625	-285.4457092285157	301.2399597167969	-1139.727416992188	-350.1126098632813	275.8960266113282	-1199.598754882813	-311.0001831054688	263.5685424804688	-1179.310668945313	-325.1535644531251	183.7542572021485	-1154.416870117188	-404.916473388672	101.498519897461	-1199.831665039063	-362.9129638671876	104.855712890625	-1118.502197265625	-462.776580810547	52.69802474975587	-1161.535522460938	-245.5592956542969	61.19454956054689	-1144.837280273438	-241.2601318359376	59.94675827026369	-1189.78466796875	-282.5274353027344	34.70980072021485	-1243.926879882813	-406.442840576172	713.5029296875001	-717.5775146484376	-352.1124877929688	678.1261596679689	-704.7705078125001	-321.5683898925782	691.1212768554689	-707.1417846679689	-346.1750488281251	593.3039550781251	-713.4117431640626	-302.9167785644532	486.7992553710939	-696.2045898437501	-278.6785278320313	461.8067321777345	-807.240661621094	-291.5757751464844	318.5843811035157	-691.1851196289064	-388.0870971679689	260.7442016601563	-675.0021362304689	-342.2558288574219	249.3352661132813	-675.7146606445314	-329.5042419433594	196.8886108398438	-699.7092895507814	-407.5181884765626	94.3447723388672	-679.2507324218751	-374.6422119140626	103.5289916992188	-759.7550659179689	-465.3568420410157	49.45616531372072	-729.2009277343751	-247.1356658935547	52.99108123779298	-722.7198486328126	-247.8201904296876	58.42050933837892	-671.0842285156251	-295.1054077148438	38.30272293090821	-624.1330566406251	-4216.870117187501	853.1729736328127	-3944.645507812501	
525	2.62	-139.1690673828125	1668.393188476563	-902.263854980469	-295.9288024902344	1570.161987304688	-986.6966552734377	-284.8773193359376	1575.5390625	-833.8247070312502	-330.2007751464844	1459.671264648438	-923.0227661132815	-442.0147094726564	1168.215087890625	-923.5264892578127	-181.1701202392578	1368.879028320313	-915.3418579101565	-226.7893676757813	1433.677124023438	-1092.322875976563	-304.3686523437501	1314.949340820313	-1235.676025390625	-300.4194946289063	1265.833618164063	-1231.434692382813	-339.9642639160157	1271.122802734375	-1277.111083984375	-366.1604003906251	1230.396484375	-1301.217529296875	-440.1900329589845	1222.448608398438	-1246.391967773438	-394.5432128906251	1025.46142578125	-1127.81494140625	-384.8358764648439	978.302429199219	-1185.742797851563	-349.6583557128907	996.346618652344	-1090.72705078125	-230.8439941406251	1435.470458984375	-746.8310546875001	-322.3826599121094	1306.39306640625	-585.1627807617189	-293.6994323730469	1266.011962890625	-596.4737548828126	-326.8101196289063	1241.509399414063	-555.5181274414064	-340.3309631347657	1194.276123046875	-542.2006835937501	-422.699188232422	1202.264282226563	-586.3468627929689	-414.5039978027345	1008.434204101563	-706.9253540039064	-375.2224426269532	987.4028320312502	-748.8719482421876	-396.5280151367189	956.0270996093752	-653.1369018554689	-329.5439758300782	937.812927246094	-1023.137329101563	-346.2461547851563	931.9490356445315	-816.2832641601565	-488.889373779297	1061.667602539063	-926.101501464844	-510.3310852050782	1041.11767578125	-954.6090087890627	-518.4713134765626	1040.885864257813	-899.9492187500002	-426.0377502441407	768.9176025390627	-1132.689208984375	-364.7544555664063	712.7417602539064	-1149.791625976563	-321.4801635742188	731.4689331054689	-1142.93798828125	-369.2302856445313	650.1212158203126	-1146.832153320313	-288.5218200683594	497.2189941406251	-1167.862060546875	-265.0650939941407	465.0479431152345	-1058.529296875	-284.4294433593751	300.9927368164063	-1139.866943359375	-348.5717163085938	276.5763549804688	-1200.401245117188	-310.5987243652344	263.1733703613282	-1179.379760742188	-324.7853088378907	183.481689453125	-1154.521850585938	-404.8154602050782	101.4953002929688	-1199.822021484375	-362.8319396972657	104.8204727172852	-1118.458984375	-462.6119079589845	52.45896911621095	-1161.587890625	-245.5025787353516	61.20839309692384	-1144.860595703125	-241.2532806396485	59.92213821411134	-1189.818969726563	-282.4335937500001	34.67227172851563	-1243.96630859375	-406.5419006347657	712.1525878906251	-716.9465942382814	-351.8542175292969	677.3970947265626	-704.3851928710939	-321.4078979492188	690.4534301757814	-706.6857910156251	-345.4458923339844	592.4583129882814	-712.9237670898439	-301.5818481445313	486.3653869628907	-695.7070922851564	-277.4424133300782	461.6197814941407	-806.6738281250002	-290.8814697265626	318.3955078125001	-690.9121704101564	-387.6425781250001	260.7467041015626	-674.7417602539064	-341.6680297851563	249.3409881591797	-675.1108398437501	-329.0690917968751	196.6974182128907	-699.5780639648439	-407.4744873046876	94.32314300537111	-679.2587890625001	-374.5523071289063	103.5567779541016	-759.7575683593751	-465.1607666015626	49.50004959106447	-729.2971191406251	-247.1605377197266	53.02264785766603	-722.6802978515626	-247.9452362060547	58.5458221435547	-670.9854736328126	-295.1767578125001	38.29124450683594	-624.0895996093751	-4216.733886718751	853.134460449219	-3944.669189453126	
